<?xml version="1.0" encoding="utf-8"?>
<!-- Generator: Adobe Illustrator 22.0.1, SVG Export Plug-In . SVG Version: 6.00 Build 0)  -->
<svg version="1.1" id="Layer_1" xmlns="http://www.w3.org/2000/svg" xmlns:xlink="http://www.w3.org/1999/xlink" x="0px" y="0px"
	 viewBox="0 0 2908.2 1000" style="enable-background:new 0 0 2908.2 1000;" xml:space="preserve">
<style type="text/css">
	.st0{fill:#50B69B;}
	.st1{fill:#FFD603;}
	.st2{fill:#8BBC22;}
	.st3{fill:#D7D9D7;}
	.st4{fill:#FFFFFF;}
	.st5{clip-path:url(#SVGID_2_);fill:#929292;}
	.st6{clip-path:url(#SVGID_2_);fill:#FFD700;}
	.st7{clip-path:url(#SVGID_2_);}
	.st8{clip-path:url(#SVGID_2_);fill:#424242;}
	.st9{clip-path:url(#SVGID_4_);fill:#4EB79C;}
	.st10{clip-path:url(#SVGID_4_);fill:#929292;}
	.st11{clip-path:url(#SVGID_4_);fill:#8DBE24;}
	.st12{clip-path:url(#SVGID_4_);}
	.st13{clip-path:url(#SVGID_4_);fill:#424242;}
</style>
<g>
	<path class="st0" d="M859,606c-13.9-8.7-24.8-20.6-32.8-35.8c-8-15.2-12.1-32.5-12.1-51.8c0-19.3,4-36.5,12.1-51.8
		c8-15.2,19-27.1,32.8-35.8c13.8-8.7,29.3-13,46.4-13c13.4,0,25.3,3,36,8.9c10.6,5.9,18.7,13.2,24.1,21.9h1.9l-1.9-26.7v-74.6h40.8
		V613h-39v-24.5h-1.9c-5.4,8.4-13.5,15.6-24.1,21.5c-10.6,5.9-22.6,8.9-36,8.9C888.3,619,872.9,614.6,859,606z M939,573.7
		c8.5-5.2,15.4-12.6,20.6-22.3c5.2-9.6,7.8-20.6,7.8-33c0-12.4-2.6-23.3-7.8-32.8c-5.2-9.5-12.1-16.9-20.6-22.1
		c-8.5-5.2-17.8-7.8-27.6-7.8c-9.9,0-19.2,2.6-27.8,7.8c-8.7,5.2-15.6,12.6-20.8,22.1c-5.2,9.5-7.8,20.5-7.8,32.8
		c0,12.4,2.6,23.4,7.8,33s12.1,17.1,20.8,22.3c8.7,5.2,17.9,7.8,27.8,7.8C921.2,581.5,930.4,578.9,939,573.7z"/>
	<path class="st1" d="M1090.3,609c-13.5-6.7-24.1-15.9-31.7-27.6c-7.7-11.7-11.5-24.7-11.5-38.8c0-13.8,3.8-26.2,11.3-36.9
		c7.5-10.8,17.1-19.1,28.8-25v-2.2c-9.2-6.2-16.7-13.9-22.6-23.2c-5.9-9.3-8.9-19.4-8.9-30.2c0-13.4,3.4-25.5,10.2-36.5
		c6.8-11,16.3-19.6,28.6-25.8c12.2-6.2,26-9.3,41.4-9.3c15.3,0,29.1,3.1,41.4,9.3c12.2,6.2,21.8,14.8,28.6,25.8
		c6.8,11,10.2,23.2,10.2,36.5c0,10.9-3,21-8.9,30.2c-5.9,9.3-13.5,17-22.6,23.2v2.2c11.6,5.9,21.2,14.3,28.8,25
		c7.5,10.8,11.3,23.1,11.3,36.9c0,14.1-3.8,27-11.5,38.8c-7.7,11.8-18.2,21-31.7,27.6c-13.5,6.7-28.6,10-45.4,10
		C1118.9,619,1103.8,615.6,1090.3,609z M1169.7,569.1c9-7.5,13.5-17.4,13.5-29.5c0-11.9-4.5-21.6-13.5-29.3
		c-9-7.7-20.3-11.5-33.9-11.5c-13.6,0-24.9,3.8-33.9,11.5c-9,7.7-13.5,17.4-13.5,29.3c0,12.1,4.5,22,13.5,29.5
		c9,7.5,20.3,11.3,33.9,11.3C1149.4,580.4,1160.7,576.6,1169.7,569.1z M1164.2,452.2c7.5-6.6,11.3-15.3,11.3-26.2
		c0-10.6-3.7-19.1-11.1-25.4c-7.4-6.3-16.9-9.5-28.6-9.5c-11.6,0-21.1,3.2-28.6,9.5s-11.1,14.8-11.1,25.4c0,10.9,3.8,19.6,11.3,26.2
		c7.5,6.6,17,9.8,28.4,9.8C1147.1,462,1156.6,458.8,1164.2,452.2z"/>
	<path class="st2" d="M1312.4,516.9l-65.3-93.1h47.5l41.9,61.6h1.1l40.1-61.6h49l-66,93.1l66.8,96.1h-48.2l-42.3-63.8h-1.1
		l-41.2,63.8h-48.2L1312.4,516.9z"/>
	<path class="st3" d="M1475.2,611c-10.6-5.3-18.9-12.9-24.9-22.6c-5.9-9.8-8.9-20.8-8.9-33.2c0-19.5,7.4-35,22.1-46.4
		c14.7-11.4,33.3-17.1,55.8-17.1c11.1,0,21.1,1.1,30.1,3.2c8.9,2.1,16,4.4,21.1,6.9v-9.6c0-11.6-4.3-21.1-13-28.4
		c-8.7-7.3-19.8-10.9-33.4-10.9c-9.6,0-18.7,2.1-27.3,6.3c-8.5,4.2-15.4,10-20.6,17.4l-28.6-21.9c8.4-11.6,19.3-20.6,32.6-27.1
		c13.4-6.4,28.2-9.6,44.5-9.6c27.5,0,48.6,6.7,63.4,20.2c14.8,13.5,22.3,32.5,22.3,56.9v118h-40.1v-22.6h-1.9
		c-5.4,8.2-13.1,15-23,20.4c-9.9,5.4-21.3,8.2-34.1,8.2C1498,619,1485.9,616.3,1475.2,611z M1545.4,578.2c7.9-4.7,14.1-11,18.5-18.9
		c4.5-7.9,6.7-16.4,6.7-25.6c-5.7-3.2-12.3-5.8-19.8-7.8c-7.5-2-15.4-3-23.6-3c-15.3,0-26.6,3-33.8,9.1
		c-7.2,6.1-10.8,13.9-10.8,23.6c0,8.7,3.3,15.8,10,21.3c6.7,5.6,15.3,8.3,26,8.3C1528.5,585.2,1537.4,582.9,1545.4,578.2z"/>
	<path class="st4" d="M1649.6,424.2l18.9-28.6c-5.4-1.5-10-4.5-13.7-9.1c-3.7-4.6-5.6-10.1-5.6-16.5c0-7.9,2.8-14.7,8.3-20.2
		c5.6-5.6,12.3-8.3,20.2-8.3c7.9,0,14.6,2.8,20,8.3c5.4,5.6,8.2,12.3,8.2,20.2c0,4.5-0.9,8.7-2.6,12.8c-1.7,4.1-4.2,8.5-7.4,13.2
		l-27.8,40.4L1649.6,424.2z"/>
	<path class="st4" d="M1744.6,604.7c-13.9-9.5-23.6-21.7-29.3-36.5l36.4-16c4.5,9.9,10.7,17.4,18.7,22.6c8,5.2,17.3,7.8,27.6,7.8
		c10.1,0,18.7-1.8,25.6-5.4c6.9-3.6,10.4-9,10.4-16.1c0-6.9-3-12.4-8.9-16.3c-5.9-4-15.1-7.4-27.5-10.4l-22.6-5.6
		c-15.1-3.7-27.6-10.3-37.5-19.7c-9.9-9.4-14.8-21.3-14.8-35.6c0-11.1,3.3-20.9,9.8-29.3c6.6-8.4,15.4-14.9,26.5-19.5
		c11.1-4.6,23.2-6.9,36.4-6.9c17.6,0,33,3.5,46.4,10.6c13.4,7,23,17.3,28.9,30.6l-35.6,15.6c-7.2-14.6-20.3-21.9-39.3-21.9
		c-9.2,0-16.8,1.9-23,5.6c-6.2,3.7-9.3,8.5-9.3,14.5c0,5.7,2.3,10.3,7,13.9c4.7,3.6,11.6,6.6,20.8,9.1l27.8,7
		c18.5,4.7,32.6,11.8,42.1,21.3c9.5,9.5,14.3,21.2,14.3,35.1c0,11.9-3.4,22.3-10.2,31.3c-6.8,9-16.1,16-28,21
		c-11.9,4.9-25,7.4-39.3,7.4C1776.2,619,1758.4,614.2,1744.6,604.7z"/>
	<path class="st4" d="M1997.6,423.8h39v27.8h1.9c4.2-9.6,11.5-17.6,21.9-23.9c10.4-6.3,21.4-9.5,33-9.5c9.1,0,16.8,1.2,23,3.7v42.3
		c-10.9-4-20.7-5.9-29.3-5.9c-9.4,0-17.8,2.5-25,7.4c-7.3,5-13,11.6-17.3,19.8c-4.2,8.3-6.3,17.4-6.3,27.3V613h-40.8V423.8z"/>
	<path class="st4" d="M2172.9,606c-14.7-8.7-26.2-20.6-34.5-35.8c-8.3-15.2-12.4-32.3-12.4-51.4c0-18.1,4-34.8,12.1-50.3
		c8-15.5,19.2-27.8,33.6-36.9c14.3-9.1,30.7-13.7,49-13.7c19,0,35.6,4.2,49.5,12.6c14,8.4,24.6,19.9,31.9,34.5
		c7.3,14.6,10.9,31,10.9,49.3c0,3.5-0.4,7.8-1.1,13h-145.1c1.5,17.6,7.7,31.1,18.7,40.6c11,9.5,23.8,14.3,38.4,14.3
		c11.6,0,21.7-2.7,30.2-8c8.5-5.3,15.4-12.6,20.6-21.7l34.5,16.3c-8.9,15.6-20.5,27.8-34.9,36.7c-14.3,8.9-31.5,13.4-51.6,13.4
		C2204.2,619,2187.6,614.6,2172.9,606z M2271.4,496.2c-0.5-6.7-2.6-13.3-6.3-19.8c-3.7-6.6-9.3-12.1-16.9-16.5
		c-7.5-4.5-16.8-6.7-27.6-6.7c-13.1,0-24.2,3.9-33.2,11.7c-9,7.8-15.3,18.2-18.7,31.3H2271.4z"/>
	<path class="st4" d="M2348.6,423.8h39v24.9h1.9c5.4-8.7,13.5-16,24.1-21.9c10.6-5.9,22.6-8.9,36-8.9c17.1,0,32.5,4.3,46.4,13
		c13.8,8.7,24.8,20.6,32.8,35.8c8,15.2,12.1,32.5,12.1,51.8c0,19.3-4,36.5-12.1,51.8c-8,15.2-19,27.1-32.8,35.8
		c-13.9,8.7-29.3,13-46.4,13c-13.4,0-25.4-3-36-8.9c-10.6-5.9-18.7-13.1-24.1-21.5h-1.9l1.9,26.3v78.3h-40.8V423.8z M2471.4,573.7
		c8.7-5.2,15.6-12.6,20.8-22.3s7.8-20.6,7.8-33c0-12.4-2.6-23.3-7.8-32.8c-5.2-9.5-12.1-16.9-20.8-22.1c-8.7-5.2-17.9-7.8-27.8-7.8
		c-9.9,0-19.1,2.6-27.6,7.8c-8.5,5.2-15.4,12.6-20.6,22.1c-5.2,9.5-7.8,20.5-7.8,32.8c0,12.4,2.6,23.4,7.8,33s12.1,17.1,20.6,22.3
		c8.5,5.2,17.7,7.8,27.6,7.8C2453.4,581.5,2462.7,578.9,2471.4,573.7z"/>
	<path class="st4" d="M2615.3,605.8c-15.1-8.8-26.8-20.8-35.2-36.2c-8.4-15.3-12.6-32.4-12.6-51.2c0-18.8,4.2-35.9,12.6-51.2
		c8.4-15.3,20.2-27.4,35.2-36.2c15.1-8.8,32.1-13.2,51.2-13.2c19,0,36.1,4.5,51.2,13.4c15.1,8.9,26.8,21,35.2,36.4
		c8.4,15.3,12.6,32.3,12.6,50.8c0,18.8-4.2,35.9-12.6,51.2c-8.4,15.3-20.2,27.4-35.2,36.2c-15.1,8.8-32.2,13.2-51.2,13.2
		C2647.5,619,2630.4,614.6,2615.3,605.8z M2695.4,573.9c8.9-5.1,16-12.4,21.3-21.9c5.3-9.5,8-20.7,8-33.6c0-12.9-2.7-24-8-33.4
		c-5.3-9.4-12.4-16.6-21.3-21.7c-8.9-5.1-18.5-7.6-28.9-7.6s-20,2.5-28.9,7.6c-8.9,5.1-16,12.3-21.3,21.7c-5.3,9.4-8,20.5-8,33.4
		c0,12.9,2.7,24.1,8,33.6c5.3,9.5,12.4,16.8,21.3,21.9c8.9,5.1,18.6,7.6,28.9,7.6S2686.5,579,2695.4,573.9z"/>
</g>
<g>
	<g>
		<defs>
			<rect id="SVGID_1_" x="0" y="124.7" width="675.5" height="750.6"/>
		</defs>
		<clipPath id="SVGID_2_">
			<use xlink:href="#SVGID_1_"  style="overflow:visible;"/>
		</clipPath>
		<polygon class="st5" points="382.8,792.5 650.3,638.1 650.3,329.3 382.8,483.9 		"/>
		<polygon class="st6" points="382.8,792.5 650.3,638.1 650.3,329.3 382.8,483.9 		"/>
		<polygon class="st7" points="382.8,792.5 115.3,638.1 115.3,329.3 382.8,483.9 		"/>
		<polygon class="st8" points="115.3,329.3 382.8,483.9 650.3,329.3 383.1,174.9 		"/>
		<polygon class="st6" points="382.8,279.6 206,381.6 206,585.7 382.8,483.5 		"/>
		<polygon class="st6" points="382.8,279.6 559.6,381.6 559.6,585.7 382.8,483.5 		"/>
		<polygon class="st6" points="559.6,585.7 382.8,483.5 206,585.7 382.7,687.8 		"/>
		<polygon class="st5" points="382.8,279.6 206,381.6 206,585.7 382.8,483.5 		"/>
		<polygon class="st7" points="382.8,279.6 559.6,381.6 559.6,585.7 382.8,483.5 		"/>
		<polygon class="st8" points="559.6,585.7 382.8,483.5 206,585.7 382.7,687.8 		"/>
		<g class="st7">
			<defs>
				<rect id="SVGID_3_" x="0" y="124.7" width="675.5" height="750.6"/>
			</defs>
			<clipPath id="SVGID_4_">
				<use xlink:href="#SVGID_3_"  style="overflow:visible;"/>
			</clipPath>
			<path class="st9" d="M631.1,178.4c-24.5,0-44.4,19.9-44.4,44.4c0,4.6,0.7,9.1,2,13.2l-142.3,80.7v203.6l-58.1,33.8l-64.8-37.4
				l0.9-203.4l-90.6-52.3v-51.2c15.8-6.8,26.8-22.5,26.8-40.8c0-24.5-19.9-44.4-44.4-44.4c-24.5,0-44.4,19.9-44.4,44.4
				c0,18.8,11.7,34.9,28.2,41.4v70.1l90.6,52.3l-0.7,203.5l64.8,37.4l-84.9,49.4v161.6c-17.1,6.2-29.3,22.6-29.3,41.8
				c0,24.5,19.9,44.4,44.4,44.4c24.5,0,44.4-19.9,44.4-44.4c0-17.9-10.5-33.3-25.8-40.3V642.5l176.6-102.8V336.1l130.6-73.8
				c6.1,3.2,13,5,20.4,5c24.5,0,44.4-19.9,44.4-44.4C675.5,198.3,655.6,178.4,631.1,178.4 M216,193.5c-13.5,0-24.4-10.9-24.4-24.4
				c0-13.5,10.9-24.4,24.4-24.4c13.5,0,24.4,10.9,24.4,24.4C240.4,182.6,229.5,193.5,216,193.5 M309.2,827.5
				c0,13.5-10.9,24.4-24.4,24.4c-13.5,0-24.4-10.9-24.4-24.4c0-13.5,10.9-24.4,24.4-24.4C298.3,803.2,309.2,814.1,309.2,827.5
				 M631,247.2c-13.5,0-24.4-10.9-24.4-24.4c0-13.5,10.9-24.4,24.4-24.4c13.5,0,24.4,10.9,24.4,24.4
				C655.4,236.3,644.5,247.2,631,247.2"/>
			<polygon class="st10" points="382.8,614.3 496,549 496,418.4 382.8,483.8 			"/>
			<polygon class="st11" points="382.8,614.3 496,549 496,418.4 382.8,483.8 			"/>
			<polygon class="st12" points="382.8,614.3 269.7,549 269.7,418.4 382.8,483.8 			"/>
			<polygon class="st13" points="269.7,418.4 382.8,483.8 496,418.4 382.9,353.1 			"/>
		</g>
	</g>
</g>
</svg>
