<?xml version="1.0" encoding="utf-8"?>
<!-- Generator: Adobe Illustrator 22.0.1, SVG Export Plug-In . SVG Version: 6.00 Build 0)  -->
<svg version="1.1" id="Layer_1" xmlns="http://www.w3.org/2000/svg" xmlns:xlink="http://www.w3.org/1999/xlink" x="0px" y="0px"
	 viewBox="0 0 1400 1555.9" style="enable-background:new 0 0 1400 1555.9;" xml:space="preserve">
<style type="text/css">
	.st0{fill:#929292;}
	.st1{fill:#FFD700;}
	.st2{fill:#010202;}
	.st3{fill:#424242;}
	.st4{fill:#4EB79C;}
	.st5{fill:#8DBE24;}
</style>
<polygon class="st0" points="703.5,1384.1 1258,1064.1 1258,424.1 703.5,744.6 "/>
<polygon class="st1" points="703.5,1384.1 1258,1064.1 1258,424.1 703.5,744.6 "/>
<polygon class="st2" points="703.5,1384.1 149,1064.1 149,424.1 703.5,744.6 "/>
<polygon class="st3" points="149,424.1 703.5,744.6 1258,424.1 704,104.1 "/>
<polygon class="st1" points="703.5,321.1 337,532.6 337,955.6 703.5,743.8 "/>
<polygon class="st1" points="703.5,321.1 1070,532.6 1070,955.6 703.5,743.8 "/>
<polygon class="st1" points="1070,955.6 703.5,743.8 337,955.6 703.1,1167.1 "/>
<polygon class="st0" points="703.5,321.1 337,532.6 337,955.6 703.5,743.8 "/>
<polygon class="st2" points="703.5,321.1 1070,532.6 1070,955.6 703.5,743.8 "/>
<polygon class="st3" points="1070,955.6 703.5,743.8 337,955.6 703.1,1167.1 "/>
<g>
	<path class="st4" d="M1218,111.4c-50.8,0-92.1,41.2-92.1,92.1c0,9.6,1.5,18.8,4.2,27.4l-295,167.3v422l-120.5,70.1l-134.3-77.6
		l1.8-421.6L394.2,282.7V176.6c32.7-14.1,55.6-46.7,55.6-84.5c0-50.9-41.2-92.1-92.1-92.1c-50.8,0-92.1,41.2-92.1,92.1
		c0,39,24.3,72.3,58.5,85.7v145.3l187.9,108.5l-1.5,421.9L644.9,931L469,1033.3v335c-35.4,12.8-60.7,46.8-60.7,86.6
		c0,50.8,41.2,92.1,92.1,92.1c50.8,0,92.1-41.2,92.1-92.1c0-37-21.9-69-53.4-83.6v-298l366.1-213.1v-422l270.6-152.9
		c12.7,6.6,27,10.3,42.3,10.3c50.8,0,92.1-41.2,92.1-92.1C1310,152.7,1268.8,111.4,1218,111.4 M357.7,142.6
		c-27.9,0-50.5-22.6-50.5-50.5c0-27.9,22.6-50.5,50.5-50.5s50.5,22.6,50.5,50.5C408.2,120,385.6,142.6,357.7,142.6 M550.8,1456.8
		c0,27.9-22.6,50.5-50.5,50.5c-27.9,0-50.5-22.6-50.5-50.5c0-27.9,22.6-50.5,50.5-50.5C528.2,1406.3,550.8,1428.9,550.8,1456.8
		 M1218,254c-27.9,0-50.5-22.6-50.5-50.5c0-27.9,22.6-50.5,50.5-50.5c27.9,0,50.5,22.6,50.5,50.5C1268.5,231.4,1245.9,254,1218,254"
		/>
	<polygon class="st0" points="703.5,1014.8 938,879.5 938,608.8 703.5,744.3 	"/>
	<polygon class="st5" points="703.5,1014.8 938,879.5 938,608.8 703.5,744.3 	"/>
	<polygon class="st2" points="703.5,1014.8 469,879.5 469,608.8 703.5,744.3 	"/>
	<polygon class="st3" points="469,608.8 703.5,744.3 938,608.8 703.7,473.5 	"/>
</g>
</svg>
